<svg width="185" height="85" viewBox="0 0 185 85" fill="none" xmlns="http://www.w3.org/2000/svg">
<path d="M7.68 69.28C6.18667 69.28 4.96 68.9067 4 68.16C3.09333 67.36 2.69333 66.4 2.8 65.28L11.76 11.52C11.9733 10.08 12.72 8.90666 14 8C15.3333 7.09333 16.8533 6.64 18.56 6.64C20.1067 6.64 21.36 7.09333 22.32 8C23.3333 8.85333 23.7333 9.89333 23.52 11.12L14.4 64.4C14.1333 65.9467 13.3333 67.1467 12 68C10.72 68.8533 9.28 69.28 7.68 69.28ZM39.0825 28.24C37.2158 28.24 35.7225 27.7067 34.6025 26.64C33.4825 25.5733 32.9225 24.1867 32.9225 22.48C32.9225 20.0267 33.7492 18 35.4025 16.4C37.1092 14.8 39.1892 14 41.6425 14C43.5092 14 45.0025 14.5067 46.1225 15.52C47.2425 16.5333 47.8025 17.8933 47.8025 19.6C47.8025 22 46.9492 24.0533 45.2425 25.76C43.5358 27.4133 41.4825 28.24 39.0825 28.24ZM30.6825 69.52C29.1358 69.52 27.8825 69.1733 26.9225 68.48C26.0158 67.7333 25.5625 66.8 25.5625 65.68C25.5625 65.3067 25.5892 65.0133 25.6425 64.8L31.5625 35.28C31.8292 33.84 32.5758 32.72 33.8025 31.92C35.0292 31.0667 36.4958 30.64 38.2025 30.64C39.7492 30.64 40.9758 31.0133 41.8825 31.76C42.8425 32.4533 43.3225 33.36 43.3225 34.48C43.3225 34.9067 43.2958 35.2267 43.2425 35.44L37.4025 64.88C37.1358 66.32 36.3625 67.4667 35.0825 68.32C33.8558 69.12 32.3892 69.52 30.6825 69.52ZM76.1138 54.08C77.6071 54.08 78.7004 54.3467 79.3938 54.88C80.1404 55.36 80.5138 56.1333 80.5138 57.2C80.5138 60.88 79.4471 63.9733 77.3138 66.48C75.1804 68.9333 72.2204 70.16 68.4338 70.16C64.9671 70.16 62.0604 69.04 59.7138 66.8C57.3671 64.56 56.1938 61.3067 56.1938 57.04C56.1938 52.9867 56.8871 47.7333 58.2738 41.28L56.4338 41.2C53.8738 41.1467 52.5938 40.0533 52.5938 37.92C52.5938 36 53.1004 34.5867 54.1138 33.68C55.1804 32.72 56.7271 32.2933 58.7538 32.4L60.5138 32.48C61.8471 27.8933 63.1538 23.84 64.4338 20.32C64.9138 19.04 65.6871 18.08 66.7538 17.44C67.8738 16.7467 69.2071 16.4 70.7538 16.4C72.3004 16.4 73.5271 16.7467 74.4338 17.44C75.3404 18.1333 75.7938 19.0133 75.7938 20.08C75.7938 20.5067 75.7138 20.96 75.5538 21.44C74.1671 25.6533 72.9671 29.52 71.9538 33.04L75.7138 33.12C78.1671 33.1733 79.3938 34.1867 79.3938 36.16C79.3938 37.9733 78.9404 39.3333 78.0338 40.24C77.1271 41.0933 75.6338 41.52 73.5538 41.52H69.7137C68.0604 48.6133 67.2338 54.0267 67.2338 57.76C67.2338 60 67.7404 61.12 68.7538 61.12C69.5004 61.12 70.0071 60.88 70.2738 60.4C70.5938 59.92 70.8604 59.0667 71.0738 57.84C71.5538 55.3333 73.2338 54.08 76.1138 54.08ZM135.021 13.2C136.674 13.2 137.954 13.6 138.861 14.4C139.821 15.2 140.301 16.2133 140.301 17.44C140.301 17.8667 140.274 18.1867 140.221 18.4L138.701 27.04L137.421 34.72L132.461 64C132.034 66.3467 131.341 68 130.381 68.96C129.474 69.8667 128.034 70.32 126.061 70.32C121.954 70.32 120.141 68.5867 120.621 65.12L120.781 64C119.234 65.8133 117.367 67.28 115.181 68.4C112.994 69.4667 110.621 70 108.061 70C102.301 70 97.8473 68.48 94.7006 65.44C91.554 62.3467 89.9806 58.16 89.9806 52.88C89.9806 50.2667 90.3806 46.64 91.1806 42C92.034 37.3067 93.6073 29.4933 95.9006 18.56C96.2206 17.0667 96.9406 15.8933 98.0606 15.04C99.1806 14.1333 100.754 13.68 102.781 13.68C104.434 13.68 105.634 13.9733 106.381 14.56C107.127 15.0933 107.501 15.9467 107.501 17.12C107.501 17.8133 107.447 18.3467 107.341 18.72C105.047 29.76 103.501 37.6533 102.701 42.4C101.954 47.0933 101.581 50.2933 101.581 52C101.581 54.2933 102.247 56.1333 103.581 57.52C104.914 58.8533 106.567 59.52 108.541 59.52C110.621 59.52 112.781 58.8 115.021 57.36C117.314 55.8667 119.314 53.8667 121.021 51.36C122.781 48.8 123.927 46 124.461 42.96L125.581 36.32C125.847 34.88 126.194 32.8533 126.621 30.24C127.047 27.5733 127.741 23.6267 128.701 18.4C129.287 14.9333 131.394 13.2 135.021 13.2ZM180.069 13.6C182.575 13.8133 183.829 15.12 183.829 17.52C183.829 19.3867 183.322 20.9067 182.309 22.08C181.295 23.2533 179.775 23.84 177.749 23.84L173.029 23.68C170.575 36.8 168.042 48.6667 165.429 59.28L171.429 59.36C174.362 59.4133 175.829 60.64 175.829 63.04C175.829 65.0667 175.269 66.72 174.149 68C173.029 69.2267 171.482 69.84 169.509 69.84L145.589 69.52C142.922 69.4667 141.589 68.1867 141.589 65.68C141.589 63.8667 142.122 62.32 143.189 61.04C144.255 59.7067 145.669 59.04 147.429 59.04L154.069 59.12C156.575 48.2933 159.029 36.48 161.429 23.68C158.549 23.84 156.442 24 155.109 24.16C153.829 24.2667 153.109 24.32 152.949 24.32C151.669 24.32 150.709 24 150.069 23.36C149.429 22.6667 149.109 21.7333 149.109 20.56C149.109 18.6933 149.589 17.1733 150.549 16C151.509 14.8267 152.922 14.1067 154.789 13.84C155.962 13.68 158.042 13.52 161.029 13.36C164.015 13.2 167.029 13.12 170.069 13.12C173.002 13.12 176.335 13.28 180.069 13.6Z" fill="url(#paint0_linear_137_3)"/>
<defs>
<linearGradient id="paint0_linear_137_3" x1="185" y1="11" x2="8" y2="65" gradientUnits="userSpaceOnUse">
<stop stop-color="#1EEDC4"/>
<stop offset="0.598511" stop-color="#147DA3"/>
<stop offset="1" stop-color="#090380"/>
</linearGradient>
</defs>
</svg>
